<?xml version="1.0" encoding="utf-8"?>
<!-- Generator: Adobe Illustrator 21.0.0, SVG Export Plug-In . SVG Version: 6.00 Build 0)  -->
<svg version="1.1" id="Laag_1" xmlns="http://www.w3.org/2000/svg" xmlns:xlink="http://www.w3.org/1999/xlink" x="0px" y="0px"
	 viewBox="0 0 75 75" style="enable-background:new 0 0 75 75;" xml:space="preserve">
<rect x="-12.1" y="29.9" transform="matrix(0.7071 -0.7071 0.7071 0.7071 -12.6044 30.4292)" width="85" height="1"/>
<rect x="2.1" y="44.1" transform="matrix(0.7071 -0.7071 0.7071 0.7071 -18.4618 44.5712)" width="85" height="1"/>
<path d="M63.8,13.5l4.9-5l-0.5-0.5L63.2,13L62.2,12l2.5-2.5c0.1-0.1,0.1-0.1,0.1-0.2l0.4-3.1l0.6-0.6l-0.5-0.5l-0.7,0.7
	c-0.1,0.1-0.1,0.1-0.1,0.2L64,9l-2.4,2.4l-2.6-2.6c-0.2-0.2-0.5-0.2-0.7,0l-7.1,7.1c-0.2,0.2-0.2,0.5,0,0.7l1.1,1.1l-2.1,2.1
	c-0.1,0.1-0.1,0.1-0.1,0.2l-0.4,3.1l-2.4,2.4L44.9,23c-0.2-0.2-0.5-0.2-0.7,0l-7.1,7.1c-0.1,0.1-0.1,0.2-0.1,0.4s0.1,0.3,0.1,0.4
	l1.1,1.1L36.2,34c-0.1,0.1-0.1,0.1-0.1,0.2l-0.4,3.1l-2.4,2.4l-2.6-2.6c-0.2-0.2-0.5-0.2-0.7,0L23,44.2c-0.2,0.2-0.2,0.5,0,0.7
	l1.1,1.1l-2.1,2.1C22,48.2,22,48.3,22,48.4l-0.4,3.1l-2.4,2.4l-2.6-2.6c-0.2-0.2-0.5-0.2-0.7,0l-7.1,7.1c-0.1,0.1-0.1,0.2-0.1,0.4
	s0.1,0.3,0.1,0.4l1.1,1.1l-2.1,2.1c-0.1,0.1-0.1,0.1-0.1,0.2l-0.4,3.1l-1,1L7,67.1l1.1-1.1c0.1-0.1,0.1-0.1,0.1-0.2l0.4-3.1l2-2
	l2.5,2.5l-4.9,4.9l0.5,0.5l4.9-4.9l2.4,2.4c0.1,0.1,0.2,0.1,0.4,0.1s0.3-0.1,0.4-0.1l7.1-7.1c0.1-0.1,0.1-0.2,0.1-0.4
	s-0.1-0.3-0.1-0.4L21.3,56l6.4-6.4l2.4,2.4c0.1,0.1,0.2,0.1,0.4,0.1s0.3-0.1,0.4-0.1l7.1-7.1c0.2-0.2,0.2-0.5,0-0.7l-2.4-2.4
	l6.4-6.4l2.4,2.4c0.1,0.1,0.2,0.1,0.4,0.1s0.3,0,0.4-0.1l7.1-7.1c0.1-0.1,0.1-0.2,0.1-0.4s-0.1-0.3-0.1-0.4l-2.4-2.4l6.4-6.4
	l2.4,2.4c0.1,0.1,0.2,0.1,0.4,0.1s0.3-0.1,0.4-0.1l7.1-7.1c0.1-0.1,0.1-0.2,0.1-0.4s-0.1-0.3-0.1-0.4L63.8,13.5z M16.3,65.1
	l-6.4-6.4l6.4-6.4l6.4,6.4L16.3,65.1z M20.8,55.4l-1.1-1.1l2.5-2.5c0.1-0.1,0.1-0.1,0.1-0.2l0.4-3.1l2-2l2.5,2.5L20.8,55.4z
	 M30.4,50.9l-6.4-6.4l6.4-6.4l6.4,6.4L30.4,50.9z M34.9,41.3l-1.1-1.1l2.5-2.5c0.1-0.1,0.1-0.1,0.1-0.2l0.4-3.1l2-2l2.5,2.5
	L34.9,41.3z M44.6,36.8l-6.4-6.4l6.4-6.4l6.4,6.4L44.6,36.8z M49.1,27.2L48,26.1l2.5-2.5c0.1-0.1,0.1-0.1,0.1-0.2l0.4-3.1l2-2
	l2.5,2.5L49.1,27.2z M58.7,22.7l-6.4-6.4l6.4-6.4l6.4,6.4L58.7,22.7z"/>
<path d="M58.7,19.7c-0.9,0-1.7-0.4-2.4-1c-0.6-0.6-1-1.5-1-2.4s0.4-1.7,1-2.4c1.3-1.3,3.5-1.3,4.8,0c0.6,0.6,1,1.5,1,2.4
	s-0.4,1.7-1,2.4C60.4,19.3,59.6,19.7,58.7,19.7z M58.7,13.7c-0.7,0-1.4,0.3-1.9,0.8c-0.5,0.5-0.8,1.2-0.8,1.9s0.3,1.4,0.8,1.9
	c1,1,2.7,1,3.7,0c0.5-0.5,0.8-1.2,0.8-1.9S61,15,60.5,14.5C60,14,59.4,13.7,58.7,13.7z"/>
<path d="M44.6,33.8c-0.9,0-1.7-0.4-2.4-1c-0.6-0.6-1-1.5-1-2.4c0-0.9,0.4-1.8,1-2.4c1.3-1.3,3.5-1.3,4.8,0c0.6,0.6,1,1.5,1,2.4
	c0,0.9-0.4,1.7-1,2.4C46.3,33.5,45.5,33.8,44.6,33.8z M44.6,27.8c-0.7,0-1.4,0.3-1.9,0.8c-0.5,0.5-0.8,1.2-0.8,1.9s0.3,1.4,0.8,1.9
	c1,1,2.7,1,3.7,0c0.5-0.5,0.8-1.2,0.8-1.9c0-0.7-0.3-1.4-0.8-1.9C45.9,28.1,45.3,27.8,44.6,27.8z"/>
<path d="M30.4,47.9c-0.9,0-1.8-0.4-2.4-1c-0.6-0.6-1-1.5-1-2.4s0.4-1.7,1-2.4c1.3-1.3,3.5-1.3,4.8,0c0.6,0.6,1,1.5,1,2.4
	s-0.4,1.7-1,2.4C32.2,47.6,31.3,47.9,30.4,47.9z M30.4,41.9c-0.7,0-1.4,0.3-1.9,0.8c-0.5,0.5-0.8,1.2-0.8,1.9s0.3,1.4,0.8,1.9
	c1,1,2.7,1,3.7,0c0.5-0.5,0.8-1.2,0.8-1.9s-0.3-1.4-0.8-1.9C31.8,42.2,31.1,41.9,30.4,41.9z"/>
<path d="M16.3,62.1c-0.9,0-1.7-0.4-2.4-1c-1.3-1.3-1.3-3.5,0-4.8c1.3-1.3,3.5-1.3,4.8,0c1.3,1.3,1.3,3.5,0,4.8
	C18,61.7,17.2,62.1,16.3,62.1z M16.3,56.1c-0.7,0-1.4,0.3-1.9,0.8c-1,1-1,2.7,0,3.7c1,1,2.7,1,3.7,0c1-1,1-2.7,0-3.7
	C17.6,56.4,17,56.1,16.3,56.1z"/>
</svg>
