<?xml version="1.0" encoding="utf-8"?>
<!-- Generator: Adobe Illustrator 21.0.0, SVG Export Plug-In . SVG Version: 6.00 Build 0)  -->
<svg version="1.1" id="Layer_1" xmlns="http://www.w3.org/2000/svg" xmlns:xlink="http://www.w3.org/1999/xlink" x="0px" y="0px"
	 viewBox="0 0 898.5 1002.2" style="enable-background:new 0 0 898.5 1002.2;" xml:space="preserve">
<style type="text/css">
	.st0{fill:#191A17;}
</style>
<path class="st0" d="M889.6,31.3C765.3,12.4,608.9,2,449.2,2C289.6,2,133.2,12.4,8.9,31.3l-6,0.9v48.6l4.3,1.8
	C17.9,87.2,29,90,40.3,91c0.1,51.6,8.1,103.2,23.6,153.3c13.5,43.5,32.7,86.1,57.1,126.6c43.3,71.8,92.7,119.3,112.8,134.4l0.3,0.2
	c16.7,11.3,24.4,28.9,23.5,53.8v0.2v0.2c2.7,124.5,4.9,214.6,6.3,268.2c0.2,6.7,1.5,9.9,5.8,14.2c4.4,4.3,9.8,10.7,15.6,17.4
	c20.5,23.8,36.1,40.7,50,40.7h8.4V944h-17v46.8l1.7,0.4c0.2,0,0.3,0.1,0.5,0.1c1.5,0.3,3,0.6,4.6,0.9c0.7,0.1,1.4,0.3,2.2,0.4
	c0.9,0.2,1.9,0.3,2.8,0.5c0.3,0,0.5,0.1,0.8,0.1c1,0.2,2.1,0.3,3.1,0.4c0.1,0,0.2,0,0.3,0c4.5,0.6,9,1,13.4,1.3
	c3.4,0.2,6.8,0.3,10.2,0.3c12.7,0,25.5-1.4,38.1-4.1l1.7-0.4V944h-17v-43.8h120.6V944h-17v46.8l1.7,0.4c0.1,0,0.3,0.1,0.4,0.1
	c1.6,0.3,3.1,0.6,4.7,0.9c0.7,0.1,1.4,0.3,2.1,0.4c0.9,0.2,1.9,0.3,2.8,0.5c0.3,0,0.5,0.1,0.8,0.1c1,0.2,2.1,0.3,3.1,0.4
	c0.1,0,0.2,0,0.3,0c4.5,0.6,9,1,13.4,1.3c3.4,0.2,6.8,0.3,10.2,0.3c11.1,0,22.3-1.1,33.4-3.1c1.6-0.3,3.2-0.6,4.7-1l1.7-0.4V944h-17
	v-43.8h8.4c14,0,30.5-17.4,52.3-41.9c5.5-6.2,10.7-12.1,14.8-16.1c4.3-4.3,5.6-7.5,5.8-14.2c0.4-16.3,1.1-34.3,1.8-55.2
	c2-56.6,4.5-127,4.5-213.2c0-26.1,7.5-43.2,23.5-54.1l0.3-0.2c19.9-14.9,68.9-62.3,112-134.4c24.2-40.5,43.2-83,56.5-126.6
	c15.3-50.1,23.2-101.6,23.3-153.2c11.3-1,22.4-3.8,33.1-8.4l4.3-1.8V32.3L889.6,31.3z M881.4,71.4c-0.1,0-0.2,0.1-0.3,0.1
	C758.3,53.4,605.3,43.4,449.2,43.4s-309,10-431.8,28.1c-0.1,0-0.2-0.1-0.3-0.1V44.5c122.7-18.3,275.8-28.3,432.2-28.3
	s309.5,10,432.2,28.3v26.9H881.4z M347.8,900.2h1.1V944h-1.1V900.2z M337.3,948.3v40.3c0,0,0,0-0.1,0c-0.9-0.2-1.9-0.3-2.8-0.5
	c-0.6-0.1-1.3-0.2-1.9-0.4c-0.6-0.1-1.1-0.2-1.7-0.3v-39.1H337.3z M401.7,948.3v39.1c-0.4,0.1-0.7,0.2-1.1,0.2
	c-1.2,0.2-2.3,0.5-3.5,0.7c-0.6,0.1-1.3,0.2-1.9,0.3c-1.2,0.2-2.3,0.4-3.5,0.5c-0.6,0.1-1.2,0.2-1.8,0.3c-1.5,0.2-3,0.4-4.5,0.6
	c-0.9,0.1-1.8,0.2-2.7,0.3c-0.9,0.1-1.9,0.2-2.8,0.3c-1,0.1-2,0.1-3,0.2c-0.6,0-1.3,0.1-1.9,0.1c-1.1,0.1-2.3,0.1-3.4,0.1
	c-0.4,0-0.9,0-1.3,0c-4,0.1-7.9,0-11.9-0.1v-42.5H389L401.7,948.3L401.7,948.3z M384.7,944h-21.2v-43.8h21.2V944z M513.8,900.2h1.1
	V944h-1.1V900.2z M503.3,948.3v40.3c0,0,0,0-0.1,0c-0.9-0.2-1.9-0.3-2.8-0.5c-0.7-0.1-1.3-0.2-2-0.4c-0.5-0.1-1.1-0.2-1.6-0.3v-39.1
	H503.3z M567.7,948.3v39.1c-0.4,0.1-0.7,0.2-1.1,0.2c-1.2,0.2-2.3,0.4-3.5,0.7c-0.6,0.1-1.3,0.2-1.9,0.3c-1.2,0.2-2.3,0.4-3.5,0.5
	c-0.6,0.1-1.2,0.2-1.8,0.3c-1.4,0.2-2.9,0.4-4.4,0.5c-1,0.1-2,0.2-3,0.3c-0.9,0.1-1.8,0.2-2.7,0.2c-1,0.1-2.1,0.1-3.1,0.2
	c-0.6,0-1.2,0.1-1.8,0.1c-1.2,0.1-2.3,0.1-3.5,0.1c-0.4,0-0.8,0-1.3,0c-4,0.1-8,0-12-0.1v-42.5h30.7h12.9V948.3z M550.7,944h-21.2
	v-43.8h21.2V944z M605,848.9c-11.5,13-32.9,37.2-41.7,37.2H380.5h-45.3c-8.4,0-27.7-22.4-39.2-35.8c-3.7-4.3-7.3-8.5-10.7-12.2
	c30,4.9,84,7.3,163.9,7.4c84.8-0.1,138.3-2.8,166.4-8.5C612.4,840.5,608.8,844.6,605,848.9z M628.3,559.6
	c0,85.9-2.5,156.2-4.5,212.7c-0.7,20.9-1.4,39-1.8,55.4c-0.1,2.5-0.1,2.9-1,3.8c-25.6,6.6-80.4,9.8-171.9,9.9
	c-85.2-0.1-140.7-2.9-168.9-8.4c-0.3-0.3-0.6-0.6-0.8-0.8c-1.5-1.5-1.5-1.5-1.6-4.5c-1.4-53.6-3.6-143.6-6.3-268
	c0.6-16.1-2.1-29.9-8-41.5c54,13.1,122.1,27.2,186.5,27.2c0.1,0,0.1,0,0.2,0c60.9,0,123.1-12.8,186.7-27.8
	C631.2,528.9,628.3,542.9,628.3,559.6z M850.9,77.3l-7,0.2l0.1,7c0.5,52.5-7.1,104.8-22.7,155.7c-13,42.4-31.6,84-55.2,123.4
	c-41.9,70.1-89,115.8-108.3,130.2c-6.2,4.2-11.5,9.2-15.7,15.1c-65.5,15.6-129.6,29.3-191.9,29.3c0,0-0.1,0-0.2,0
	c-35.1,0-88.6-3.3-191.7-28.7c-4.4-6-9.8-11.2-16.3-15.7c-19.4-14.6-66.9-60.5-109-130.3c-23.8-39.5-42.5-81-55.7-123.4
	C61.7,189.3,54,136.9,54.5,84.5l0.1-7l-7-0.2c-4.2-0.1-8.4-0.5-12.6-1.2c119.6-16.6,265.5-25.7,414.3-25.7S744,59.5,863.6,76.1
	C859.3,76.8,855.1,77.2,850.9,77.3z"/>
<path d="M445.6,614.9c5.8-0.4,13.4-2.5,17.6,2.9c5.3,5.6,0.4,15.9-7.2,15.6c-11.4-0.5-21.4,10.3-20.4,21.5c-0.4,8.9,2.1,19.5-5,26.6
	c-11.3,9.6-17.6,25.6-13.5,40.2c4.1,18.9,23.8,32.6,42.9,30.2c11.5-1.5,22.1-7.8,28.6-17.4c11.4-15.9,8-39.7-7.1-52.1
	c-11.2-9.9-5.3-30.8,9.6-33c26.2-3.4,46.7,25.3,42.8,49.6c-1.7,36.6-33.4,69.1-69.9,71.7c-22.8,3-46.7-5.4-63.1-21.6
	C385.1,734,376,711.9,377.3,690C377.4,652.6,408.6,619,445.6,614.9z"/>
<path d="M173.1,187.3c5.3-13.8,20.4-21.4,34.6-21.2c12.4-0.7,27.2,4.2,31.7,16.9c2.3,5-2.3,11-7.7,10.1c-4.3-0.5-6-4.9-8.3-7.9
	c-5.9-8.7-19-9-27.4-4c-8.8,5.5-11.3,16.9-10.6,26.6c0.3,8.9,3.9,18.8,12.5,22.8c9.7,4.4,20.9,1.7,30-3c0.3-4.1,0-8.2,0.3-12.2
	c-6.1-1-12.7,1-18.5-1.6c-4.3-2.6-1.9-10.1,3-10.2c8.2-0.1,16.6-0.7,24.8,0.5c6.2,2,4.6,9.7,4.8,14.7c-0.5,5.6,1.8,13-3.6,16.9
	c-15.6,10.5-38,13-54.1,2.2C168.9,226.9,166.6,204.2,173.1,187.3z"/>
<path d="M262.1,166.4c4.9-1.6,10.1,2.4,9.9,7.5c0.2,19.4,0.1,38.7,0,58.1c11.4,0.6,22.8-0.4,34.1,0.5c6.7,1,6.3,11.9-0.6,12.2
	c-13.6,0.4-27.3,0.2-40.9,0.1c-4.4,0.3-8.1-3.5-7.9-7.9c-0.2-20.3,0-40.7-0.1-61C256.4,172.1,257.9,167.3,262.1,166.4z"/>
<path d="M321.1,174.8c-0.3-4.4,2.9-8.8,7.6-8.6c15-0.1,30-0.3,44.9,0.1c6.6,0.7,6.3,11.6-0.3,11.9c-12.2,0.5-24.5,0.1-36.8,0.2
	c0,6.4,0,12.8,0,19.3c11.4,0.2,22.8-0.3,34.1,0.2c6.3,0.6,6.2,11.1-0.1,11.6c-11.3,0.6-22.7,0.1-34.1,0.3c0,7.4,0,14.9,0,22.3
	c12.4,0.1,24.8-0.2,37.2,0.1c4.8-0.1,7.5,5.8,5.1,9.7c-1.8,3.2-5.9,3-9.1,3c-14-0.2-28,0.3-41.9-0.2c-4.4-0.2-6.9-4.6-6.7-8.7
	C321,215.6,321,195.2,321.1,174.8z"/>
<path d="M398.1,166.4c13.2,0,27.1-2,40,2.2c15.5,6.9,20.2,25.8,18.8,41.3c-0.3,13.8-7.4,29.2-21.6,33.4c-11.3,2.9-23.1,1.2-34.7,1.6
	c-4.6,0.4-8.8-3.2-8.5-7.9c-0.4-20.4-0.1-40.7-0.1-61.1C391.8,171.8,393.5,166.9,398.1,166.4 M407.5,178.7c0,17.8,0,35.6,0,53.4
	c7.8-0.5,16.2,1.3,23.6-2c8.1-4.6,10-14.8,10.2-23.3c0.3-9-0.8-20.1-9.2-25.4C424.6,177.6,415.7,179,407.5,178.7z"/>
<path d="M497.2,166.5c11.3-1.5,23.9,0.4,32.6,8.3c9.5,8.4,12.3,22,11.6,34.2c-0.5,11.8-5.6,24.2-16,30.5c-14,8.1-33.5,7.5-46.2-3
	c-12.4-11.1-14.3-30.1-10.3-45.4C472.1,178,483.8,167.8,497.2,166.5 M498,179.2c-8.8,2.3-13.9,11.1-14.9,19.6
	c-1.2,9.8-0.2,21.2,7.3,28.4c8.8,8.7,25.3,6.5,31.3-4.4c5.5-9.9,5.5-22.6,1.1-32.9C518.8,180.6,507.4,176.3,498,179.2z"/>
<path d="M558.2,167.3c4.5-2.1,9.7-1,14.6-1.3c9.2,0.3,18.8-1.1,27.6,2.3c16.4,6.7,16.6,34.5,0.1,41.3c-9.6,4.3-20.4,2.4-30.5,3.1
	c-0.2,8.9,0.7,18-0.5,26.8c-1.9,7.8-14.7,6.3-14.7-1.7c-0.5-20.3,0-40.7-0.2-61C554.6,173.5,554.8,169.2,558.2,167.3 M570,177.8
	c0.1,7.7,0,15.4,0,23c7-0.2,14.4,1,21-1.7c8.5-3.4,7.8-18.2-1.3-20.4C583.4,177.1,576.6,177.8,570,177.8z"/>
<path d="M622.3,178.4c-6.4-1.5-5.1-12.2,1.5-12.1c17.6-0.3,35.2-0.2,52.8,0c6.5-0.3,8.4,9.8,2.4,11.9c-6.9,1.6-14,0.3-21,0.8
	c0,19,0,37.9,0,56.9c0.2,3.9-1.9,8.5-6.2,8.9c-4.8,1.1-9.2-3.1-9-7.8c-0.3-19.4,0-38.7-0.1-58.1C635.9,178.6,629,179.5,622.3,178.4z
	"/>
<path d="M717.2,166.6c11.6-1.6,24.5,0.4,33.3,8.6c9.7,9,12.2,23.2,11,35.8c-0.9,11.7-6.6,23.7-17.3,29.4
	c-14.2,7.2-33.3,6.3-45.4-4.5c-11.9-11.5-13.6-30.1-9.4-45.4C692.7,177.8,704.1,168,717.2,166.6 M718.1,179.3
	c-8.6,2.4-13.5,11-14.6,19.4c-1.3,9.8-0.2,21.2,7.1,28.5c8.7,8.8,25.3,6.7,31.3-4.2c5.6-10,5.6-22.8,1.1-33.1
	C738.9,180.5,727.5,176.3,718.1,179.3z"/>
</svg>
