<?xml version="1.0" encoding="UTF-8" ?>
<!DOCTYPE svg PUBLIC "-//W3C//DTD SVG 1.1//EN" "http://www.w3.org/Graphics/SVG/1.1/DTD/svg11.dtd">
<svg width="125pt" height="140pt" viewBox="0 0 125 140" version="1.1" xmlns="http://www.w3.org/2000/svg">
<g id="#ffffffff">
</g>
<g id="#474c4bff">
<path fill="#474c4b" opacity="1.00" d=" M 24.71 2.00 C 25.27 2.00 26.40 2.00 26.96 2.00 C 27.06 10.15 27.01 18.29 27.00 26.44 C 26.04 26.13 25.08 25.82 24.13 25.51 C 18.18 30.52 9.87 22.01 13.87 15.89 C 15.74 11.43 21.42 10.96 24.84 13.90 C 24.62 9.94 24.67 5.96 24.71 2.00 M 18.41 14.37 C 14.05 16.63 15.16 25.70 20.84 24.90 C 27.21 23.72 25.19 11.46 18.41 14.37 Z" />
<path fill="#474c4b" opacity="1.00" d=" M 73.99 1.99 C 74.54 1.99 75.63 1.99 76.18 1.99 C 76.18 10.13 76.28 18.27 76.17 26.41 C 75.25 26.13 74.34 25.85 73.44 25.57 C 71.54 26.44 69.43 27.68 67.31 26.70 C 60.77 24.66 61.26 13.27 68.07 12.02 C 70.29 11.42 72.22 12.82 74.01 13.89 C 73.97 9.92 74.00 5.96 73.99 1.99 M 67.45 14.55 C 63.07 17.21 64.97 26.39 70.83 24.76 C 76.77 22.79 73.97 11.09 67.45 14.55 Z" />
<path fill="#474c4b" opacity="1.00" d=" M 32.77 13.66 C 34.40 12.47 36.29 11.83 38.30 11.76 C 38.53 15.05 34.20 13.62 33.17 16.05 C 31.47 19.15 32.30 22.88 32.12 26.26 C 31.59 26.26 30.53 26.26 30.00 26.26 C 29.98 21.59 29.99 16.92 29.97 12.25 C 30.91 12.71 31.84 13.18 32.77 13.66 Z" />
<path fill="#474c4b" opacity="1.00" d=" M 40.02 25.94 C 34.62 22.59 36.33 12.45 43.01 11.94 C 47.43 11.29 50.49 15.59 50.20 19.65 C 46.41 19.61 42.62 19.66 38.83 19.80 C 39.79 21.77 40.43 24.72 43.09 24.96 C 45.99 25.47 47.43 21.95 50.24 21.72 C 49.76 26.40 43.68 28.52 40.02 25.94 M 38.97 17.67 C 41.95 17.77 44.93 17.77 47.92 17.65 C 46.57 12.99 40.41 13.15 38.97 17.67 Z" />
<path fill="#474c4b" opacity="1.00" d=" M 51.98 15.12 C 52.39 10.20 62.90 11.26 60.26 16.13 C 58.26 14.18 55.20 13.07 53.51 16.07 C 56.09 18.37 61.71 18.52 61.25 22.96 C 61.19 28.52 50.97 28.32 51.34 22.53 C 53.75 23.30 56.64 26.35 58.99 23.79 C 59.45 19.27 50.59 20.35 51.98 15.12 Z" />
<path fill="#474c4b" opacity="1.00" d=" M 81.95 26.11 C 76.13 22.96 77.95 11.98 85.01 11.93 C 89.36 11.47 91.99 15.83 91.95 19.70 C 88.21 19.60 84.46 19.67 80.71 19.73 C 81.13 26.53 88.29 25.41 91.57 21.40 C 91.96 26.22 85.54 28.48 81.95 26.11 M 80.65 17.69 C 83.56 17.78 86.48 17.79 89.40 17.72 C 88.42 12.83 81.96 13.22 80.65 17.69 Z" />
<path fill="#474c4b" opacity="1.00" d=" M 96.70 13.31 C 99.43 11.58 103.83 11.13 105.51 14.50 C 106.61 18.29 105.79 22.36 106.00 26.25 C 105.44 26.25 104.33 26.23 103.78 26.23 C 103.75 22.92 104.01 19.60 103.56 16.31 C 102.93 12.78 97.15 13.38 96.64 16.70 C 96.00 19.83 96.29 23.05 96.26 26.22 C 95.69 26.23 94.56 26.24 93.99 26.25 C 93.97 21.62 94.02 17.00 93.95 12.38 C 94.87 12.69 95.79 13.00 96.70 13.31 Z" />
<path fill="#474c4b" opacity="1.00" d=" M 21.29 34.07 C 21.85 34.02 22.98 33.94 23.55 33.90 C 23.64 42.14 23.67 50.39 23.52 58.63 C 22.99 58.43 21.93 58.04 21.40 57.85 C 21.08 49.93 21.38 41.99 21.29 34.07 Z" />
<path fill="#474c4b" opacity="1.00" d=" M 41.65 33.97 C 42.21 33.99 43.32 34.01 43.87 34.03 C 43.92 39.41 43.88 44.79 43.91 50.17 C 46.54 48.29 48.74 44.44 52.22 44.75 C 50.96 47.41 48.09 48.81 45.96 50.71 C 48.68 53.18 51.45 55.63 53.78 58.50 C 49.34 58.53 47.06 54.19 43.95 51.74 C 43.91 53.89 43.90 56.04 43.88 58.20 C 43.33 58.22 42.21 58.25 41.65 58.27 C 41.59 50.17 41.61 42.07 41.65 33.97 Z" />
<path fill="#474c4b" opacity="1.00" d=" M 107.61 33.95 C 108.16 33.97 109.27 34.01 109.82 34.04 C 109.85 39.42 109.82 44.80 109.87 50.18 C 112.68 47.84 115.10 44.50 119.05 44.13 C 117.16 46.77 114.53 48.68 111.94 50.55 C 114.54 53.19 117.37 55.62 119.73 58.49 C 115.28 58.54 113.01 54.18 109.89 51.73 C 109.86 53.88 109.85 56.03 109.84 58.18 C 109.28 58.20 108.17 58.25 107.61 58.27 C 107.54 50.16 107.57 42.06 107.61 33.95 Z" />
<path fill="#474c4b" opacity="1.00" d=" M 102.17 38.34 C 103.50 36.93 105.80 39.18 104.33 40.50 C 103.01 41.98 100.70 39.66 102.17 38.34 Z" />
<path fill="#474c4b" opacity="1.00" d=" M 55.68 38.62 C 58.66 38.68 57.57 41.90 57.89 43.87 C 58.93 44.48 59.97 45.10 61.00 45.73 C 60.17 46.02 58.52 46.60 57.69 46.89 C 56.89 50.57 60.02 57.22 55.61 58.61 C 55.54 54.72 55.55 50.83 55.54 46.94 C 54.46 46.60 53.56 46.01 52.86 45.19 C 53.52 44.92 54.82 44.38 55.48 44.11 C 55.54 42.28 55.59 40.45 55.68 38.62 Z" />
<path fill="#474c4b" opacity="1.00" d=" M 8.96 58.08 C 3.23 54.91 5.01 44.04 12.00 43.93 C 16.36 43.45 19.10 47.79 18.99 51.71 C 15.23 51.59 11.47 51.68 7.72 51.72 C 8.22 58.45 15.30 57.47 18.59 53.41 C 19.10 58.25 12.50 60.50 8.96 58.08 M 7.68 49.66 C 10.59 49.77 13.51 49.78 16.43 49.72 C 15.47 44.82 9.03 45.26 7.68 49.66 Z" />
<path fill="#474c4b" opacity="1.00" d=" M 28.57 57.51 C 23.81 53.82 25.72 44.55 32.02 43.96 C 36.46 43.23 39.72 47.55 39.23 51.69 C 35.47 51.61 31.72 51.66 27.97 51.80 C 28.85 54.36 30.49 57.76 33.82 56.94 C 35.63 55.82 37.21 54.28 39.28 53.62 C 39.02 58.69 32.10 60.69 28.57 57.51 M 28.12 49.67 C 31.12 49.78 34.11 49.78 37.10 49.63 C 35.63 45.07 29.56 45.10 28.12 49.67 Z" />
<path fill="#474c4b" opacity="1.00" d=" M 65.51 45.52 C 67.34 44.07 69.60 43.48 71.66 44.92 C 64.58 45.66 64.22 52.56 64.93 58.20 C 64.37 58.22 63.25 58.26 62.69 58.28 C 62.63 53.60 62.63 48.93 62.66 44.25 C 63.61 44.67 64.56 45.10 65.51 45.52 Z" />
<path fill="#474c4b" opacity="1.00" d=" M 75.27 44.23 C 80.39 42.50 86.23 47.60 84.94 52.92 C 83.91 58.15 76.87 61.00 72.74 57.34 C 67.85 54.02 69.53 45.54 75.27 44.23 M 75.45 46.43 C 71.79 47.96 71.00 53.38 74.26 55.73 C 77.10 58.41 81.96 56.19 82.58 52.56 C 83.59 48.70 79.17 44.56 75.45 46.43 Z" />
<path fill="#474c4b" opacity="1.00" d=" M 89.65 45.34 C 92.33 43.51 96.77 43.17 98.39 46.55 C 99.61 50.29 98.82 54.34 98.99 58.20 C 98.41 58.22 97.26 58.26 96.69 58.28 C 96.57 54.78 97.09 51.18 96.24 47.76 C 95.10 44.83 90.33 45.62 89.58 48.47 C 88.84 51.67 89.22 54.99 89.16 58.24 C 88.62 58.25 87.54 58.25 86.99 58.25 C 86.97 53.60 87.03 48.95 86.95 44.30 C 87.85 44.64 88.75 44.99 89.65 45.34 Z" />
<path fill="#474c4b" opacity="1.00" d=" M 101.98 44.28 C 106.70 46.00 103.11 53.90 104.20 58.23 C 103.65 58.23 102.55 58.25 101.99 58.25 C 101.98 53.59 101.99 48.94 101.98 44.28 Z" />
<path fill="#474c4b" opacity="1.00" d=" M 30.46 72.31 C 51.97 72.24 73.48 72.30 94.99 72.26 C 95.02 93.51 94.99 114.75 95.00 136.00 C 73.47 135.97 51.94 136.05 30.41 135.97 C 30.49 114.75 30.45 93.53 30.46 72.31 M 42.34 97.35 C 39.28 106.27 43.15 116.91 51.28 121.72 C 60.18 127.57 73.47 125.33 79.66 116.59 C 82.19 112.88 75.88 108.46 73.26 112.23 C 68.25 118.20 58.30 118.96 52.97 113.03 C 46.86 107.17 48.70 96.00 56.22 92.22 C 63.37 88.04 73.02 92.17 75.64 99.85 C 69.08 100.08 62.51 99.60 55.97 100.04 C 51.87 100.07 51.30 106.84 55.29 107.59 C 62.51 108.13 69.79 107.62 77.03 107.84 C 79.49 107.83 83.37 108.17 83.89 104.91 C 84.90 94.68 76.82 84.98 66.88 83.15 C 56.66 80.89 45.47 87.37 42.34 97.35 Z" />
</g>
</svg>
