<?xml version="1.0" encoding="UTF-8" ?>
<!DOCTYPE svg PUBLIC "-//W3C//DTD SVG 1.1//EN" "http://www.w3.org/Graphics/SVG/1.1/DTD/svg11.dtd">
<svg width="600pt" height="600pt" viewBox="0 0 600 600" version="1.1" xmlns="http://www.w3.org/2000/svg">
<g id="#ffffffff">
</g>
<g id="#000000ff">
<path fill="#000000" opacity="1.00" d=" M 311.56 149.90 C 317.40 149.51 324.98 147.44 329.19 152.85 C 334.44 158.44 329.62 168.74 322.02 168.47 C 310.65 167.93 300.63 178.74 301.66 190.01 C 301.30 198.95 303.74 209.55 296.62 216.58 C 285.35 226.19 278.99 242.23 283.14 256.74 C 287.29 275.64 306.89 289.38 326.03 286.98 C 337.48 285.51 348.16 279.16 354.63 269.56 C 366.01 253.62 362.60 229.86 347.56 217.43 C 336.37 207.50 342.26 186.67 357.14 184.41 C 383.33 181.06 403.86 209.70 399.90 233.97 C 398.24 270.59 366.51 303.07 329.97 305.66 C 307.18 308.62 283.27 300.24 266.90 284.11 C 251.09 269.00 242.05 246.91 243.31 225.02 C 243.35 187.64 274.59 153.95 311.56 149.90 Z" />
<path fill="#000000" opacity="1.00" d=" M 9.36 366.37 C 14.68 352.55 29.72 345.00 43.99 345.19 C 56.35 344.52 71.23 349.43 75.69 362.10 C 78.01 367.10 73.37 373.11 67.97 372.18 C 63.69 371.70 62.02 367.28 59.72 364.29 C 53.80 355.58 40.76 355.28 32.36 360.34 C 23.55 365.86 21.10 377.23 21.71 386.95 C 21.96 395.89 25.66 405.77 34.24 409.79 C 43.96 414.23 55.17 411.48 64.27 406.82 C 64.52 402.74 64.25 398.66 64.52 394.58 C 58.41 393.54 51.82 395.54 45.99 392.97 C 41.72 390.33 44.06 382.91 49.01 382.79 C 57.24 382.71 65.61 382.06 73.77 383.26 C 79.96 385.31 78.38 392.98 78.55 398.00 C 78.04 403.62 80.38 411.05 74.96 414.92 C 59.34 425.40 36.97 427.89 20.86 417.15 C 5.18 405.99 2.80 383.29 9.36 366.37 Z" />
<path fill="#000000" opacity="1.00" d=" M 98.36 345.46 C 103.23 343.88 108.47 347.88 108.22 353.00 C 108.39 372.35 108.33 391.72 108.24 411.09 C 119.60 411.72 131.04 410.69 142.36 411.60 C 149.03 412.61 148.63 423.46 141.80 423.80 C 128.18 424.18 114.53 423.96 100.90 423.91 C 96.47 424.19 92.75 420.46 92.98 416.04 C 92.74 395.70 92.95 375.35 92.88 355.01 C 92.66 351.17 94.12 346.40 98.36 345.46 Z" />
<path fill="#000000" opacity="1.00" d=" M 157.38 353.91 C 157.08 349.53 160.31 345.16 164.94 345.30 C 179.92 345.21 194.93 344.97 209.89 345.42 C 216.44 346.09 216.16 357.02 209.56 357.34 C 197.33 357.85 185.06 357.39 172.81 357.57 C 172.80 363.99 172.77 370.40 172.82 376.82 C 184.20 376.98 195.61 376.48 206.97 377.06 C 213.28 377.66 213.20 388.13 206.92 388.70 C 195.57 389.29 184.18 388.76 172.81 388.96 C 172.79 396.39 172.80 403.81 172.80 411.24 C 185.21 411.38 197.63 411.08 210.04 411.38 C 214.85 411.27 217.53 417.18 215.10 421.05 C 213.27 424.24 209.16 424.02 205.99 424.00 C 192.01 423.81 178.01 424.28 164.05 423.77 C 159.62 423.58 157.15 419.12 157.38 415.08 C 157.29 394.69 157.29 374.30 157.38 353.91 Z" />
<path fill="#000000" opacity="1.00" d=" M 234.37 345.46 C 247.61 345.44 261.52 343.42 274.33 347.70 C 289.86 354.56 294.49 373.45 293.14 388.96 C 292.85 402.79 285.75 418.17 271.58 422.34 C 260.29 425.26 248.45 423.53 236.92 423.95 C 232.33 424.38 228.13 420.75 228.43 416.03 C 228.06 395.68 228.35 375.31 228.28 354.95 C 228.03 350.93 229.79 345.98 234.37 345.46 M 243.70 357.82 C 243.66 375.63 243.66 393.45 243.70 411.26 C 251.54 410.78 259.93 412.61 267.34 409.30 C 275.41 404.72 277.35 394.51 277.58 385.99 C 277.84 376.94 276.83 365.89 268.41 360.56 C 260.79 356.74 251.92 358.04 243.70 357.82 Z" />
<path fill="#000000" opacity="1.00" d=" M 333.45 345.61 C 344.77 344.12 357.33 346.01 366.06 353.90 C 375.56 362.34 378.41 375.86 377.62 388.07 C 377.14 399.90 372.05 412.28 361.60 418.62 C 347.59 426.68 328.08 426.07 315.43 415.60 C 303.01 404.45 301.11 385.54 305.17 370.17 C 308.36 357.11 320.06 346.93 333.45 345.61 M 334.26 358.29 C 325.48 360.58 320.41 369.42 319.37 377.94 C 318.13 387.74 319.21 399.10 326.63 406.36 C 335.39 415.01 351.94 412.84 357.89 401.96 C 363.40 392.04 363.41 379.32 358.97 369.01 C 355.01 359.73 343.67 355.42 334.26 358.29 Z" />
<path fill="#000000" opacity="1.00" d=" M 394.43 346.43 C 398.96 344.29 404.16 345.41 409.00 345.14 C 418.19 345.45 427.82 344.08 436.62 347.45 C 453.04 354.19 453.20 381.96 436.75 388.79 C 427.15 393.12 416.40 391.17 406.24 391.92 C 406.06 400.85 406.97 409.91 405.73 418.76 C 403.87 426.51 391.08 425.11 391.08 417.05 C 390.60 396.72 391.03 376.36 390.87 356.01 C 390.86 352.60 391.02 348.27 394.43 346.43 M 406.27 356.92 C 406.34 364.60 406.31 372.28 406.29 379.96 C 413.29 379.79 420.67 380.95 427.34 378.25 C 435.79 374.87 435.12 360.02 426.09 357.88 C 419.63 356.20 412.86 356.86 406.27 356.92 Z" />
<path fill="#000000" opacity="1.00" d=" M 458.57 357.49 C 452.16 355.95 453.48 345.33 460.10 345.36 C 477.69 345.07 495.32 345.14 512.91 345.32 C 519.37 345.04 521.32 355.08 515.32 357.26 C 508.47 358.82 501.28 357.54 494.29 358.04 C 494.31 377.01 494.34 395.99 494.28 414.97 C 494.50 418.88 492.35 423.43 488.05 423.89 C 483.29 424.96 478.81 420.82 479.01 416.07 C 478.70 396.72 478.97 377.36 478.88 358.01 C 472.12 357.67 465.26 358.58 458.57 357.49 Z" />
<path fill="#000000" opacity="1.00" d=" M 553.47 345.64 C 565.03 344.06 577.93 346.03 586.74 354.26 C 596.46 363.24 598.93 377.45 597.74 390.11 C 596.88 401.82 591.09 413.83 580.39 419.49 C 566.24 426.65 547.13 425.76 535.00 414.97 C 523.10 403.52 521.39 384.85 525.60 369.62 C 528.93 356.88 540.38 347.04 553.47 345.64 M 554.30 358.36 C 545.72 360.71 540.76 369.39 539.67 377.74 C 538.37 387.54 539.44 398.89 546.78 406.22 C 555.45 415.01 572.10 412.92 578.11 402.04 C 583.70 392.09 583.71 379.27 579.21 368.91 C 575.17 359.62 563.72 355.37 554.30 358.36 Z" />
</g>
</svg>
